<?xml version="1.0" standalone="no"?>
<!DOCTYPE svg PUBLIC "-//W3C//DTD SVG 20010904//EN"
 "http://www.w3.org/TR/2001/REC-SVG-20010904/DTD/svg10.dtd">
<svg version="1.0" xmlns="http://www.w3.org/2000/svg"
 width="64.000000pt" height="64.000000pt" viewBox="0 0 64.000000 64.000000"
 preserveAspectRatio="xMidYMid meet">

<g transform="translate(0.000000,64.000000) scale(0.100000,-0.100000)"
fill="#000000" stroke="none">
<path d="M36 604 c-12 -11 -16 -35 -16 -84 0 -61 3 -71 25 -88 25 -20 25 -21
25 -187 l0 -167 29 -29 29 -29 162 0 162 0 29 29 c16 16 29 37 29 45 0 9 7 16
15 16 29 0 71 28 83 55 16 35 16 275 0 310 -12 27 -54 55 -83 55 -20 0 -19 9
2 32 13 15 15 23 6 36 -9 15 -37 17 -246 20 -204 2 -237 0 -251 -14z m474 -19
c0 -5 -20 -11 -45 -13 -42 -3 -45 -5 -45 -32 0 -35 -19 -49 -35 -27 -18 24
-23 21 -27 -15 -5 -49 -32 -44 -36 7 -4 47 -17 65 -46 65 -34 0 -46 -19 -46
-71 0 -52 -16 -72 -35 -46 -18 24 -23 21 -27 -15 -4 -48 -32 -44 -36 5 -4 43
-7 45 -32 15 -15 -19 -22 -21 -37 -12 -22 14 -31 117 -12 140 10 12 51 14 235
12 141 -2 224 -7 224 -13z m-212 -80 c2 -22 8 -45 14 -52 16 -19 46 -16 60 7
7 11 20 20 28 20 23 0 40 20 40 47 0 18 6 23 25 23 l25 0 0 -230 0 -230 -200
0 -200 0 0 163 c0 90 3 167 7 170 3 4 11 -3 17 -16 15 -30 51 -34 68 -8 7 12
20 21 28 21 27 0 40 22 40 70 0 51 6 62 30 58 10 -2 16 -17 18 -43z m277 -26
c18 -18 20 -33 20 -159 0 -126 -2 -141 -20 -159 -29 -27 -65 -37 -65 -17 0 9
8 16 18 16 37 0 42 20 42 160 0 140 -5 160 -42 160 -10 0 -18 7 -18 16 0 20
36 10 65 -17z m-30 -159 c0 -120 -2 -135 -17 -138 -17 -3 -18 9 -18 138 0 129
1 141 18 138 15 -3 17 -18 17 -138z m-95 -265 c-35 -20 -285 -20 -320 0 -22
13 -5 14 160 14 165 0 182 -1 160 -14z"/>
<path d="M170 300 c0 -33 4 -60 10 -60 6 0 10 27 10 60 0 33 -4 60 -10 60 -6
0 -10 -27 -10 -60z"/>
<path d="M280 335 c0 -14 5 -25 10 -25 6 0 10 11 10 25 0 14 -4 25 -10 25 -5
0 -10 -11 -10 -25z"/>
<path d="M380 300 c0 -33 4 -60 10 -60 6 0 10 27 10 60 0 33 -4 60 -10 60 -6
0 -10 -27 -10 -60z"/>
<path d="M280 280 c0 -5 5 -10 10 -10 6 0 10 5 10 10 0 6 -4 10 -10 10 -5 0
-10 -4 -10 -10z"/>
<path d="M280 170 c0 -33 4 -60 10 -60 6 0 10 27 10 60 0 33 -4 60 -10 60 -6
0 -10 -27 -10 -60z"/>
<path d="M170 190 c0 -5 5 -10 10 -10 6 0 10 5 10 10 0 6 -4 10 -10 10 -5 0
-10 -4 -10 -10z"/>
<path d="M380 190 c0 -5 5 -10 10 -10 6 0 10 5 10 10 0 6 -4 10 -10 10 -5 0
-10 -4 -10 -10z"/>
<path d="M170 135 c0 -14 5 -25 10 -25 6 0 10 11 10 25 0 14 -4 25 -10 25 -5
0 -10 -11 -10 -25z"/>
<path d="M380 135 c0 -14 5 -25 10 -25 6 0 10 11 10 25 0 14 -4 25 -10 25 -5
0 -10 -11 -10 -25z"/>
</g>
</svg>
